<?xml version="1.0" encoding="UTF-8" standalone="no"?>
<svg
   xmlns:dc="http://purl.org/dc/elements/1.1/"
   xmlns:cc="http://creativecommons.org/ns#"
   xmlns:rdf="http://www.w3.org/1999/02/22-rdf-syntax-ns#"
   xmlns:svg="http://www.w3.org/2000/svg"
   xmlns="http://www.w3.org/2000/svg"
   xmlns:sodipodi="http://sodipodi.sourceforge.net/DTD/sodipodi-0.dtd"
   xmlns:inkscape="http://www.inkscape.org/namespaces/inkscape"
   version="1.1"
   id="Capa_1"
   x="0px"
   y="0px"
   viewBox="0 0 512.005 512.005"
   style="enable-background:new 0 0 512.005 512.005;"
   xml:space="preserve"
   sodipodi:docname="arrowupgreen.svg"
   inkscape:version="1.0.1 (3bc2e813f5, 2020-09-07)"><metadata
   id="metadata205"><rdf:RDF><cc:Work
       rdf:about=""><dc:format>image/svg+xml</dc:format><dc:type
         rdf:resource="http://purl.org/dc/dcmitype/StillImage" /><dc:title></dc:title></cc:Work></rdf:RDF></metadata><defs
   id="defs203" /><sodipodi:namedview
   pagecolor="#ffffff"
   bordercolor="#666666"
   borderopacity="1"
   objecttolerance="10"
   gridtolerance="10"
   guidetolerance="10"
   inkscape:pageopacity="0"
   inkscape:pageshadow="2"
   inkscape:window-width="1440"
   inkscape:window-height="847"
   id="namedview201"
   showgrid="false"
   inkscape:zoom="1.070302"
   inkscape:cx="256.0025"
   inkscape:cy="256.0025"
   inkscape:window-x="2"
   inkscape:window-y="-8"
   inkscape:window-maximized="1"
   inkscape:current-layer="g166" />
<g
   id="g168">
	<g
   id="g166">
		<path
   d="M466.211,205.787L263.544,3.12c-4.16-4.16-10.923-4.16-15.083,0L45.795,205.787c-21.803,21.803-21.803,57.28,0,79.083    s57.28,21.803,79.083,0l77.781-77.781v251.584c0,29.397,23.936,53.333,53.333,53.333s53.333-23.936,53.333-53.333V207.088    l77.803,77.781c21.803,21.803,57.28,21.803,79.083,0S488.013,227.589,466.211,205.787z M451.128,269.787    c-13.056,13.056-35.861,13.056-48.917,0l-96-96c-3.051-3.029-7.637-3.947-11.627-2.304c-3.989,1.643-6.592,5.547-6.592,9.856    v277.333c0,17.643-14.357,32-32,32s-32-14.357-32-32V181.339c0-4.309-2.603-8.213-6.592-9.856    c-1.323-0.555-2.709-0.811-4.075-0.811c-2.773,0-5.504,1.088-7.531,3.115l-96,96c-13.056,13.056-35.861,13.056-48.917,0    c-13.483-13.483-13.483-35.435,0-48.917L255.992,25.755l195.136,195.115C464.611,234.352,464.611,256.304,451.128,269.787z"
   id="path164"
   style="fill:#00ff00" />
	</g>
</g>
<g
   id="g170">
</g>
<g
   id="g172">
</g>
<g
   id="g174">
</g>
<g
   id="g176">
</g>
<g
   id="g178">
</g>
<g
   id="g180">
</g>
<g
   id="g182">
</g>
<g
   id="g184">
</g>
<g
   id="g186">
</g>
<g
   id="g188">
</g>
<g
   id="g190">
</g>
<g
   id="g192">
</g>
<g
   id="g194">
</g>
<g
   id="g196">
</g>
<g
   id="g198">
</g>
</svg>
