<?xml version="1.0" encoding="UTF-8" standalone="no"?>
<svg
   xmlns:dc="http://purl.org/dc/elements/1.1/"
   xmlns:cc="http://creativecommons.org/ns#"
   xmlns:rdf="http://www.w3.org/1999/02/22-rdf-syntax-ns#"
   xmlns:svg="http://www.w3.org/2000/svg"
   xmlns="http://www.w3.org/2000/svg"
   xmlns:sodipodi="http://sodipodi.sourceforge.net/DTD/sodipodi-0.dtd"
   xmlns:inkscape="http://www.inkscape.org/namespaces/inkscape"
   version="1.1"
   id="Capa_1"
   x="0px"
   y="0px"
   viewBox="0 0 512.005 512.005"
   style="enable-background:new 0 0 512.005 512.005;"
   xml:space="preserve"
   sodipodi:docname="arrowdownred.svg"
   inkscape:version="1.0.1 (3bc2e813f5, 2020-09-07)"><metadata
   id="metadata43"><rdf:RDF><cc:Work
       rdf:about=""><dc:format>image/svg+xml</dc:format><dc:type
         rdf:resource="http://purl.org/dc/dcmitype/StillImage" /><dc:title></dc:title></cc:Work></rdf:RDF></metadata><defs
   id="defs41" /><sodipodi:namedview
   pagecolor="#ffffff"
   bordercolor="#666666"
   borderopacity="1"
   objecttolerance="10"
   gridtolerance="10"
   guidetolerance="10"
   inkscape:pageopacity="0"
   inkscape:pageshadow="2"
   inkscape:window-width="1366"
   inkscape:window-height="715"
   id="namedview39"
   showgrid="false"
   inkscape:zoom="1.070302"
   inkscape:cx="256.0025"
   inkscape:cy="256.0025"
   inkscape:window-x="-8"
   inkscape:window-y="892"
   inkscape:window-maximized="1"
   inkscape:current-layer="g4"
   inkscape:document-rotation="0" />
<g
   id="g6"
   transform="rotate(180,256.00281,256.003)">
	<g
   id="g4">
		<path
   d="M 466.211,205.787 263.544,3.12 c -4.16,-4.16 -10.923,-4.16 -15.083,0 L 45.795,205.787 c -21.803,21.803 -21.803,57.28 0,79.083 21.803,21.803 57.28,21.803 79.083,0 l 77.781,-77.781 v 251.584 c 0,29.397 23.936,53.333 53.333,53.333 29.397,0 53.333,-23.936 53.333,-53.333 V 207.088 l 77.803,77.781 c 21.803,21.803 57.28,21.803 79.083,0 21.803,-21.803 21.802,-57.28 0,-79.082 z m -15.083,64 c -13.056,13.056 -35.861,13.056 -48.917,0 l -96,-96 c -3.051,-3.029 -7.637,-3.947 -11.627,-2.304 -3.989,1.643 -6.592,5.547 -6.592,9.856 v 277.333 c 0,17.643 -14.357,32 -32,32 -17.643,0 -32,-14.357 -32,-32 V 181.339 c 0,-4.309 -2.603,-8.213 -6.592,-9.856 -1.323,-0.555 -2.709,-0.811 -4.075,-0.811 -2.773,0 -5.504,1.088 -7.531,3.115 l -96,96 c -13.056,13.056 -35.861,13.056 -48.917,0 -13.483,-13.483 -13.483,-35.435 0,-48.917 L 255.992,25.755 451.128,220.87 c 13.483,13.482 13.483,35.434 0,48.917 z"
   id="path2"
   style="fill:#ff0000" />
	</g>
</g>
<g
   id="g8">
</g>
<g
   id="g10">
</g>
<g
   id="g12">
</g>
<g
   id="g14">
</g>
<g
   id="g16">
</g>
<g
   id="g18">
</g>
<g
   id="g20">
</g>
<g
   id="g22">
</g>
<g
   id="g24">
</g>
<g
   id="g26">
</g>
<g
   id="g28">
</g>
<g
   id="g30">
</g>
<g
   id="g32">
</g>
<g
   id="g34">
</g>
<g
   id="g36">
</g>
</svg>
